<?xml version="1.0" encoding="UTF-8" standalone="no"?>
<!-- Created with Inkscape (http://www.inkscape.org/) -->

<svg
   xmlns:dc="http://purl.org/dc/elements/1.1/"
   xmlns:cc="http://creativecommons.org/ns#"
   xmlns:rdf="http://www.w3.org/1999/02/22-rdf-syntax-ns#"
   xmlns:svg="http://www.w3.org/2000/svg"
   xmlns="http://www.w3.org/2000/svg"
   xmlns:sodipodi="http://sodipodi.sourceforge.net/DTD/sodipodi-0.dtd"
   xmlns:inkscape="http://www.inkscape.org/namespaces/inkscape"
   width="227.99106mm"
   height="228mm"
   viewBox="0 0 807.84234 807.87401"
   id="svg2"
   version="1.1"
   inkscape:version="0.91 r13725"
   sodipodi:docname="logov2.svg"
   inkscape:export-filename="C:\Users\proto\Documents\pandamakes\clients\pandamakes\v2\logotransparent.png"
   inkscape:export-xdpi="90"
   inkscape:export-ydpi="90">
  <defs
     id="defs4" />
  <sodipodi:namedview
     id="base"
     pagecolor="#ffffff"
     bordercolor="#666666"
     borderopacity="1.0"
     inkscape:pageopacity="0.0"
     inkscape:pageshadow="2"
     inkscape:zoom="0.49497475"
     inkscape:cx="52.829798"
     inkscape:cy="584.54274"
     inkscape:document-units="px"
     inkscape:current-layer="layer1"
     showgrid="false"
     fit-margin-top="10"
     fit-margin-left="10"
     fit-margin-right="10"
     fit-margin-bottom="10"
     inkscape:window-width="1458"
     inkscape:window-height="841"
     inkscape:window-x="70"
     inkscape:window-y="-8"
     inkscape:window-maximized="1" />
  <metadata
     id="metadata7">
    <rdf:RDF>
      <cc:Work
         rdf:about="">
        <dc:format>image/svg+xml</dc:format>
        <dc:type
           rdf:resource="http://purl.org/dc/dcmitype/StillImage" />
        <dc:title></dc:title>
      </cc:Work>
    </rdf:RDF>
  </metadata>
  <g
     inkscape:label="Layer 1"
     inkscape:groupmode="layer"
     id="layer1"
     transform="translate(-95.997508,-292.50366)">
    <path
       style="fill:#1a1a1a;fill-opacity:1;stroke:#ffffff;stroke-width:0;stroke-linecap:round;stroke-linejoin:round;stroke-miterlimit:4;stroke-dasharray:none;stroke-opacity:1"
       d="M 211.06304,664.2299 C 169.08001,608.42266 126.96586,579.56438 173.99863,482.08281 203.22513,421.50706 308.44736,431.7131 352.14364,451.03218 301.72719,567.77804 274.19879,608.4801 211.06304,664.2299 Z"
       id="path4138-5"
       inkscape:connector-curvature="0"
       sodipodi:nodetypes="cscc"
       inkscape:export-xdpi="90"
       inkscape:export-ydpi="90" />
    <path
       style="fill:#1a1a1a;fill-opacity:1;stroke:#ffffff;stroke-width:0;stroke-linecap:round;stroke-linejoin:round;stroke-miterlimit:4;stroke-dasharray:none;stroke-opacity:1"
       d="m 815.69087,671.15769 c 58.44515,-31.29924 88.83365,-160.46088 16.29415,-218.29978 -79.98564,-53.67297 -182.85026,27.0606 -143.74779,124.96754 39.10246,97.90695 88.92418,113.966 127.45364,93.33224 z"
       id="path4138-5-7"
       inkscape:connector-curvature="0"
       sodipodi:nodetypes="sccs"
       inkscape:export-xdpi="90"
       inkscape:export-ydpi="90" />
    <path
       style="fill:#1a1a1a;fill-opacity:1;stroke:#ffffff;stroke-width:0;stroke-linecap:round;stroke-linejoin:round;stroke-miterlimit:4;stroke-dasharray:none;stroke-opacity:1"
       d="m 481.93277,1014.4117 c -91.67089,-1.1225 -199.0372,-4.5326 -259.47735,-64.78873 -63.08947,-62.89723 -62.96603,-148.67989 -62.09457,-245.17629 1.22859,-136.04029 45.4206,-211.16822 150.32155,-281.3691 63.18005,-42.28079 267.95454,-53.87193 341.72853,-13.43998 164.83716,90.33928 155.64589,95.73879 155.07712,284.68638 -0.32673,108.54246 10.73498,207.33042 -67.55138,269.92059 -57.99229,46.36503 -174.14016,50.19243 -253.87562,50.19243"
       id="path4138-2"
       inkscape:connector-curvature="0"
       sodipodi:nodetypes="cssssssc"
       inkscape:export-xdpi="90"
       inkscape:export-ydpi="90" />
    <path
       style="fill:#ececec;fill-opacity:1;stroke:#ffffff;stroke-width:0;stroke-linecap:round;stroke-linejoin:round;stroke-miterlimit:4;stroke-dasharray:none;stroke-opacity:1"
       d="m 473.31798,1005.1942 c -78.00288,-0.9927 -191.48002,-9.03533 -240.90079,-64.37621 -30.6463,-34.31742 -55.28425,-95.66809 -30.03914,-139.70469 0.49924,-28.49041 -4.89682,-60.69931 -0.71356,-86.75773 6.04448,-37.65238 40.58153,-126.33505 95.58734,-165.0512 75.47388,-53.12272 284.36518,-74.8575 374.10893,-0.034 54.3695,45.33035 78.73877,119.4151 78.27872,186.60146 -0.50438,73.66044 8.6276,159.94283 -37.71456,208.01294 -53.59079,55.589 -153.99404,61.33073 -235.26785,61.33073"
       id="path4138-2-0"
       inkscape:connector-curvature="0"
       sodipodi:nodetypes="cscsssssc"
       inkscape:export-xdpi="90"
       inkscape:export-ydpi="90" />
    <path
       style="fill:#1a1a1a;fill-opacity:1;stroke:#ffffff;stroke-width:0;stroke-linecap:round;stroke-linejoin:round;stroke-miterlimit:4;stroke-dasharray:none;stroke-opacity:1"
       d="m 222.0596,734.91652 c 4.69948,-38.41975 9.08323,-47.5981 39.75535,-61.95378 11.9271,-5.58232 60.41476,-17.90358 97.29304,-11.14091 49.21188,9.02439 47.31034,16.4094 47.14846,36.16763 -0.45649,55.71741 -70.63088,98.92244 -120.49826,98.9187 -49.86373,-0.68229 -70.35871,-7.543 -63.69859,-61.99164 z"
       id="path4138-2-8"
       inkscape:connector-curvature="0"
       sodipodi:nodetypes="sssscs"
       inkscape:export-xdpi="90"
       inkscape:export-ydpi="90" />
    <path
       style="fill:#1a1a1a;fill-opacity:1;stroke:#ffffff;stroke-width:0;stroke-linecap:round;stroke-linejoin:round;stroke-miterlimit:4;stroke-dasharray:none;stroke-opacity:1"
       d="m 675.86876,738.26585 c -0.23976,-41.79143 -18.27017,-47.43728 -50.91814,-62.37864 -12.69545,-5.81007 -58.21578,-17.02052 -103.56057,-11.59543 -52.8157,6.31893 -50.85185,17.07886 -50.18571,37.64319 1.87908,58.00912 67.09962,104.97858 120.1794,104.97469 53.07589,-0.71012 84.79532,-14.55713 84.48502,-68.64381 z"
       id="path4138-2-8-8"
       inkscape:connector-curvature="0"
       sodipodi:nodetypes="sssscs"
       inkscape:export-xdpi="90"
       inkscape:export-ydpi="90" />
    <path
       style="fill:#ececec;fill-opacity:1;stroke:#ffffff;stroke-width:0;stroke-linecap:round;stroke-linejoin:round;stroke-miterlimit:4;stroke-dasharray:none;stroke-opacity:1"
       id="path4238"
       sodipodi:type="arc"
       sodipodi:cx="350.44345"
       sodipodi:cy="719.81274"
       sodipodi:rx="21.574942"
       sodipodi:ry="27.526651"
       sodipodi:start="1.5829386"
       sodipodi:end="1.5707963"
       sodipodi:open="true"
       d="m 350.18149,747.33737 a 21.574942,27.526651 0 0 1 -21.31209,-27.7753 21.574942,27.526651 0 0 1 21.70503,-27.27547 21.574942,27.526651 0 0 1 21.44386,27.6097 21.574942,27.526651 0 0 1 -21.57484,27.4431"
       inkscape:export-xdpi="90"
       inkscape:export-ydpi="90" />
    <path
       style="fill:#1a1a1a;fill-opacity:1;stroke:#ffffff;stroke-width:0;stroke-linecap:round;stroke-linejoin:round;stroke-miterlimit:4;stroke-dasharray:none;stroke-opacity:1"
       d="m 391.72411,846.6597 c 0.12237,17.05183 16.90623,15.47964 30.34423,15.3761 13.43799,-0.10352 16.66507,1.95869 16.62428,-15.09377 -0.0408,-17.05246 -4.89686,-33.58451 -18.48281,-33.47985 -13.58628,0.10468 -28.60808,16.14569 -28.4857,33.19752 z"
       id="path4285"
       inkscape:connector-curvature="0"
       sodipodi:nodetypes="sssss"
       inkscape:export-xdpi="90"
       inkscape:export-ydpi="90" />
    <path
       style="fill:#ececec;fill-opacity:1;stroke:#ffffff;stroke-width:0;stroke-linecap:round;stroke-linejoin:round;stroke-miterlimit:4;stroke-dasharray:none;stroke-opacity:1"
       id="path4238-9"
       sodipodi:type="arc"
       sodipodi:cx="575.95929"
       sodipodi:cy="719.95685"
       sodipodi:rx="21.574942"
       sodipodi:ry="27.526651"
       sodipodi:start="1.5829386"
       sodipodi:end="1.5707963"
       sodipodi:open="true"
       d="m 575.69733,747.48147 a 21.574942,27.526651 0 0 1 -21.31209,-27.7753 21.574942,27.526651 0 0 1 21.70503,-27.27547 21.574942,27.526651 0 0 1 21.44386,27.60971 21.574942,27.526651 0 0 1 -21.57484,27.44309"
       inkscape:export-xdpi="90"
       inkscape:export-ydpi="90" />
    <path
       style="fill:#1a1a1a;fill-opacity:1;stroke:#ffffff;stroke-width:0;stroke-linecap:round;stroke-linejoin:round;stroke-miterlimit:4;stroke-dasharray:none;stroke-opacity:1"
       d="m 344.91108,883.53675 c 0,0 18.47645,12.99375 31.67832,14.51761 14.0899,1.62637 25.72799,-10.85959 34.11902,-21.32126 3.3167,-4.13516 5.29957,-14.99385 5.29957,-14.99385 l 5.18547,-0.33074 c 0,0 2.41027,8.95139 5.36666,12.31425 13.31996,15.15133 32.11365,32.16457 51.92664,31.08826 19.8845,-1.08019 56.59078,-31.73293 56.59078,-31.73293 l 2.60461,25.59301 c 0,0 -39.20635,21.65413 -58.78258,20.01694 -20.01161,-1.6736 -51.56267,-25.34778 -59.02352,-32.08589 -5.17246,0.15459 -5.32757,0.45618 -7.77079,2.9224 -9.14091,9.22697 -18.31728,19.61739 -32.92876,20.4084 -12.84975,0.69564 -36.3956,-15.81064 -36.3956,-15.81064 z"
       id="rect4324"
       inkscape:connector-curvature="0"
       sodipodi:nodetypes="cssccssccscsscc"
       inkscape:export-xdpi="90"
       inkscape:export-ydpi="90" />
    <path
       style="fill:none;fill-opacity:1;stroke:#550000;stroke-width:29.03631783;stroke-linecap:round;stroke-linejoin:round;stroke-miterlimit:4;stroke-dasharray:none;stroke-opacity:1"
       d="m 424.09571,729.06229 c 0.72545,-74.81705 65.76226,-126.39428 145.42306,-125.94004 79.66079,0.45424 143.91503,52.76871 143.67321,127.58852 -0.24182,74.8198 -65.39526,128.23116 -145.93344,127.77192 -80.53818,-0.45924 -143.88828,-54.60335 -143.16283,-129.4204 z"
       id="path4413-5"
       inkscape:connector-curvature="0"
       sodipodi:nodetypes="sssss" />
    <path
       style="fill:none;fill-opacity:1;stroke:#aa0000;stroke-width:16.78110123;stroke-linecap:round;stroke-linejoin:round;stroke-miterlimit:4;stroke-dasharray:none;stroke-opacity:1"
       d="m 422.50104,732.09299 c 0.72545,-74.81705 64.75211,-128.91966 144.41291,-128.46542 79.6608,0.45423 144.92519,55.29409 144.68337,130.1139 -0.24182,74.81981 -61.85939,125.70578 -142.39791,125.24654 -80.53783,-0.45924 -147.42382,-52.07797 -146.69837,-126.89502 z"
       id="path4413"
       inkscape:connector-curvature="0"
       sodipodi:nodetypes="sssss" />
    <path
       style="fill:none;fill-opacity:1;stroke:#550000;stroke-width:27.75;stroke-linecap:round;stroke-linejoin:round;stroke-miterlimit:4;stroke-dasharray:none;stroke-opacity:1"
       d="m 151.37155,717.38732 c 0.63016,-72.10872 55.6093,-117.97253 124.80682,-117.53473 69.19752,0.43779 126.52733,47.01216 126.31727,119.12353 C 402.28559,791.0875 347.6439,840.77591 277.68421,840.33329 207.72408,839.89067 150.74139,789.49604 151.37155,717.38732 Z"
       id="path4413-4-2"
       inkscape:connector-curvature="0"
       sodipodi:nodetypes="sssss" />
    <path
       style="fill:none;fill-opacity:1;stroke:#aa0000;stroke-width:15.35454464;stroke-linecap:round;stroke-linejoin:round;stroke-miterlimit:4;stroke-dasharray:none;stroke-opacity:1"
       d="m 273.89145,839.70632 c -69.19784,-0.43798 -124.66528,-47.2969 -124.03512,-119.40561 0.63016,-72.10872 57.6296,-121.00298 126.82712,-120.56519 69.19751,0.4378 124.50702,50.04262 124.29696,122.15399 -0.21005,72.11137 -56.36694,118.26445 -125.56435,117.82646 z"
       id="path4413-4"
       inkscape:connector-curvature="0"
       sodipodi:nodetypes="ssssss" />
    <rect
       style="fill:#ff0000;fill-opacity:1;stroke:#aa0000;stroke-width:25.51439857;stroke-linecap:round;stroke-linejoin:round;stroke-miterlimit:4;stroke-dasharray:none;stroke-opacity:1"
       id="rect4448"
       width="11.164171"
       height="9.7355995"
       x="405.50992"
       y="718.31915" />
  </g>
</svg>
